<svg id="visual" viewBox="0 0 1440 1051" width="1440" height="1051" xmlns="http://www.w3.org/2000/svg" xmlns:xlink="http://www.w3.org/1999/xlink" version="1.1"><rect x="0" y="0" width="1440" height="1051" fill="#01101f"></rect><defs><linearGradient id="grad1_0" x1="27%" y1="100%" x2="100%" y2="0%"><stop offset="22.597526165556612%" stop-color="#01101f" stop-opacity="1"></stop><stop offset="77.40247383444338%" stop-color="#01101f" stop-opacity="1"></stop></linearGradient></defs><defs><linearGradient id="grad2_0" x1="0%" y1="100%" x2="73%" y2="0%"><stop offset="22.597526165556612%" stop-color="#01101f" stop-opacity="1"></stop><stop offset="77.40247383444338%" stop-color="#01101f" stop-opacity="1"></stop></linearGradient></defs><g transform="translate(1440, 1051)"><path d="M-267.4 0C-260.8 -47.5 -254.2 -94.9 -231.6 -133.7C-208.9 -172.5 -170.3 -202.6 -129 -223.4C-87.7 -244.3 -43.9 -255.8 0 -267.4L0 0Z" fill="#F7770F"></path></g><g transform="translate(0, 0)"><path d="M267.4 0C258.6 45.5 249.8 90.9 228.6 132C207.4 173.1 173.9 209.7 133.7 231.6C93.5 253.4 46.8 260.4 0 267.4L0 0Z" fill="#F7770F"></path></g></svg>