<svg id="visual" viewBox="0 0 1440 795" width="1440" height="795" xmlns="http://www.w3.org/2000/svg" xmlns:xlink="http://www.w3.org/1999/xlink" version="1.1"><rect x="0" y="0" width="1440" height="795" fill="#060534"></rect><path d="M0 633L120 639L240 590L360 607L480 586L600 566L720 604L840 630L960 592L1080 547L1200 630L1320 566L1440 621L1440 796L1320 796L1200 796L1080 796L960 796L840 796L720 796L600 796L480 796L360 796L240 796L120 796L0 796Z" fill="#f7770f"></path><path d="M0 616L120 636L240 605L360 611L480 631L600 687L720 625L840 592L960 597L1080 597L1200 645L1320 647L1440 640L1440 796L1320 796L1200 796L1080 796L960 796L840 796L720 796L600 796L480 796L360 796L240 796L120 796L0 796Z" fill="#fa8a2b"></path><path d="M0 688L120 708L240 653L360 678L480 717L600 668L720 673L840 688L960 648L1080 681L1200 697L1320 722L1440 660L1440 796L1320 796L1200 796L1080 796L960 796L840 796L720 796L600 796L480 796L360 796L240 796L120 796L0 796Z" fill="#fc9c42"></path><path d="M0 700L120 702L240 748L360 724L480 744L600 742L720 730L840 726L960 746L1080 700L1200 707L1320 711L1440 713L1440 796L1320 796L1200 796L1080 796L960 796L840 796L720 796L600 796L480 796L360 796L240 796L120 796L0 796Z" fill="#ffad59"></path></svg>