<svg id="visual" viewBox="0 0 900 600" width="900" height="600" xmlns="http://www.w3.org/2000/svg" xmlns:xlink="http://www.w3.org/1999/xlink" version="1.1"><rect x="0" y="0" width="900" height="600" fill="#060534"></rect><path d="M0 478L75 482L150 445L225 458L300 442L375 427L450 456L525 475L600 446L675 413L750 475L825 427L900 468L900 601L825 601L750 601L675 601L600 601L525 601L450 601L375 601L300 601L225 601L150 601L75 601L0 601Z" fill="#f7770f"></path><path d="M0 465L75 480L150 457L225 461L300 476L375 518L450 472L525 446L600 450L675 450L750 486L825 488L900 482L900 601L825 601L750 601L675 601L600 601L525 601L450 601L375 601L300 601L225 601L150 601L75 601L0 601Z" fill="#fa8a2b"></path><path d="M0 519L75 534L150 492L225 512L300 541L375 504L450 508L525 519L600 489L675 514L750 526L825 545L900 498L900 601L825 601L750 601L675 601L600 601L525 601L450 601L375 601L300 601L225 601L150 601L75 601L0 601Z" fill="#fc9c42"></path><path d="M0 528L75 529L150 564L225 546L300 561L375 560L450 551L525 548L600 563L675 528L750 533L825 536L900 538L900 601L825 601L750 601L675 601L600 601L525 601L450 601L375 601L300 601L225 601L150 601L75 601L0 601Z" fill="#ffad59"></path></svg>