<svg xmlns="http://www.w3.org/2000/svg" version="1.1" xmlns:xlink="http://www.w3.org/1999/xlink" xmlns:svgjs="http://svgjs.com/svgjs" width="1440" height="560" preserveAspectRatio="none" viewBox="0 0 1440 560"><g mask="url(&quot;#SvgjsMask1063&quot;)" fill="none"><rect width="1440" height="560" x="0" y="0" fill="rgba(15, 15, 16, 1)"></rect><path d="M1326 53L1325 -257" stroke-width="10" stroke="url(#SvgjsLinearGradient1064)" stroke-linecap="round" class="Up"></path><path d="M221 492L220 849" stroke-width="8" stroke="url(#SvgjsLinearGradient1064)" stroke-linecap="round" class="Up"></path><path d="M639 270L638 630" stroke-width="10" stroke="url(#SvgjsLinearGradient1065)" stroke-linecap="round" class="Down"></path><path d="M633 67L632 -116" stroke-width="8" stroke="url(#SvgjsLinearGradient1064)" stroke-linecap="round" class="Up"></path><path d="M1180 340L1179 41" stroke-width="10" stroke="url(#SvgjsLinearGradient1064)" stroke-linecap="round" class="Up"></path><path d="M655 170L654 -135" stroke-width="8" stroke="url(#SvgjsLinearGradient1064)" stroke-linecap="round" class="Up"></path><path d="M943 82L942 468" stroke-width="6" stroke="url(#SvgjsLinearGradient1064)" stroke-linecap="round" class="Up"></path><path d="M345 457L344 142" stroke-width="6" stroke="url(#SvgjsLinearGradient1064)" stroke-linecap="round" class="Up"></path><path d="M797 183L796 -38" stroke-width="8" stroke="url(#SvgjsLinearGradient1065)" stroke-linecap="round" class="Down"></path><path d="M647 427L646 626" stroke-width="8" stroke="url(#SvgjsLinearGradient1065)" stroke-linecap="round" class="Down"></path><path d="M890 78L889 485" stroke-width="6" stroke="url(#SvgjsLinearGradient1065)" stroke-linecap="round" class="Down"></path><path d="M655 277L654 58" stroke-width="8" stroke="url(#SvgjsLinearGradient1065)" stroke-linecap="round" class="Down"></path><path d="M689 46L688 364" stroke-width="8" stroke="url(#SvgjsLinearGradient1064)" stroke-linecap="round" class="Up"></path><path d="M346 254L345 428" stroke-width="8" stroke="url(#SvgjsLinearGradient1065)" stroke-linecap="round" class="Down"></path><path d="M206 327L205 145" stroke-width="8" stroke="url(#SvgjsLinearGradient1065)" stroke-linecap="round" class="Down"></path><path d="M523 141L522 -15" stroke-width="10" stroke="url(#SvgjsLinearGradient1064)" stroke-linecap="round" class="Up"></path><path d="M1361 448L1360 838" stroke-width="8" stroke="url(#SvgjsLinearGradient1064)" stroke-linecap="round" class="Up"></path><path d="M501 65L500 207" stroke-width="8" stroke="url(#SvgjsLinearGradient1064)" stroke-linecap="round" class="Up"></path><path d="M1286 407L1285 809" stroke-width="8" stroke="url(#SvgjsLinearGradient1065)" stroke-linecap="round" class="Down"></path><path d="M178 514L177 908" stroke-width="10" stroke="url(#SvgjsLinearGradient1065)" stroke-linecap="round" class="Down"></path><path d="M622 180L621 -4" stroke-width="10" stroke="url(#SvgjsLinearGradient1064)" stroke-linecap="round" class="Up"></path><path d="M465 399L464 187" stroke-width="10" stroke="url(#SvgjsLinearGradient1064)" stroke-linecap="round" class="Up"></path><path d="M1079 547L1078 838" stroke-width="10" stroke="url(#SvgjsLinearGradient1065)" stroke-linecap="round" class="Down"></path><path d="M871 134L870 -222" stroke-width="6" stroke="url(#SvgjsLinearGradient1065)" stroke-linecap="round" class="Down"></path><path d="M1049 39L1048 355" stroke-width="6" stroke="url(#SvgjsLinearGradient1064)" stroke-linecap="round" class="Up"></path><path d="M786 226L785 533" stroke-width="10" stroke="url(#SvgjsLinearGradient1064)" stroke-linecap="round" class="Up"></path><path d="M900 336L899 -3" stroke-width="6" stroke="url(#SvgjsLinearGradient1065)" stroke-linecap="round" class="Down"></path><path d="M1239 166L1238 532" stroke-width="10" stroke="url(#SvgjsLinearGradient1065)" stroke-linecap="round" class="Down"></path><path d="M729 252L728 -91" stroke-width="8" stroke="url(#SvgjsLinearGradient1064)" stroke-linecap="round" class="Up"></path><path d="M799 426L798 53" stroke-width="6" stroke="url(#SvgjsLinearGradient1065)" stroke-linecap="round" class="Down"></path><path d="M853 321L852 -3" stroke-width="10" stroke="url(#SvgjsLinearGradient1065)" stroke-linecap="round" class="Down"></path><path d="M565 133L564 -129" stroke-width="6" stroke="url(#SvgjsLinearGradient1064)" stroke-linecap="round" class="Up"></path><path d="M1435 227L1434 499" stroke-width="10" stroke="url(#SvgjsLinearGradient1065)" stroke-linecap="round" class="Down"></path><path d="M3 403L2 759" stroke-width="6" stroke="url(#SvgjsLinearGradient1064)" stroke-linecap="round" class="Up"></path><path d="M1313 476L1312 212" stroke-width="8" stroke="url(#SvgjsLinearGradient1064)" stroke-linecap="round" class="Up"></path><path d="M926 310L925 563" stroke-width="10" stroke="url(#SvgjsLinearGradient1064)" stroke-linecap="round" class="Up"></path></g><defs><mask id="SvgjsMask1063"><rect width="1440" height="560" fill="#ffffff"></rect></mask><linearGradient x1="0%" y1="100%" x2="0%" y2="0%" id="SvgjsLinearGradient1064"><stop stop-color="rgba(247, 114, 0, 0)" offset="0"></stop><stop stop-color="rgba(247, 114, 0, 1)" offset="1"></stop></linearGradient><linearGradient x1="0%" y1="0%" x2="0%" y2="100%" id="SvgjsLinearGradient1065"><stop stop-color="rgba(247, 114, 0, 0)" offset="0"></stop><stop stop-color="rgba(247, 114, 0, 1)" offset="1"></stop></linearGradient></defs></svg>